<svg xmlns="http://www.w3.org/2000/svg" width="1400" height="760" viewBox="0 0 1400 760" fill="none">
  <defs>
    <linearGradient id="bg" x1="0" y1="0" x2="1400" y2="760" gradientUnits="userSpaceOnUse">
      <stop stop-color="#fffdf8"/>
      <stop offset="1" stop-color="#fff6e6"/>
    </linearGradient>
    <linearGradient id="card" x1="0" y1="0" x2="1" y2="1">
      <stop stop-color="#ffffff"/>
      <stop offset="1" stop-color="#fff8ed"/>
    </linearGradient>
    <linearGradient id="primary" x1="0" y1="0" x2="1" y2="1">
      <stop stop-color="#0d7c7a"/>
      <stop offset="1" stop-color="#06695f"/>
    </linearGradient>
    <linearGradient id="bar" x1="0" y1="0" x2="1" y2="0">
      <stop stop-color="#f48c06"/>
      <stop offset="1" stop-color="#d45d00"/>
    </linearGradient>
    <filter id="shadow" x="-20%" y="-20%" width="140%" height="160%">
      <feDropShadow dx="0" dy="6" stdDeviation="8" flood-color="#1f2f3a" flood-opacity="0.15"/>
    </filter>
  </defs>

  <rect width="1400" height="760" fill="url(#bg)"/>
  <circle cx="1320" cy="110" r="140" fill="#f48c06" opacity="0.18"/>
  <circle cx="120" cy="660" r="180" fill="#0d7c7a" opacity="0.14"/>

  <text x="70" y="72" fill="#4f6673" font-family="Segoe UI, Arial, sans-serif" font-size="18" letter-spacing="3">RISK INTELLIGENCE BOARD</text>
  <text x="70" y="122" fill="#1f2f3a" font-family="Georgia, 'Times New Roman', serif" font-size="46" font-weight="700">Helpful Risk Analysis Visuals</text>
  <text x="70" y="154" fill="#4f6673" font-family="Segoe UI, Arial, sans-serif" font-size="20">Capture uncertainty, prioritize what matters, and test mitigation choices instantly.</text>

  <g filter="url(#shadow)">
    <rect x="70" y="188" width="300" height="92" rx="14" fill="url(#card)" stroke="#d8c9b8"/>
    <rect x="388" y="188" width="300" height="92" rx="14" fill="url(#card)" stroke="#d8c9b8"/>
    <rect x="706" y="188" width="300" height="92" rx="14" fill="url(#card)" stroke="#d8c9b8"/>
    <rect x="1024" y="188" width="300" height="92" rx="14" fill="url(#card)" stroke="#d8c9b8"/>
  </g>

  <text x="92" y="220" fill="#4f6673" font-family="Segoe UI, Arial, sans-serif" font-size="14">TOTAL RISKS</text>
  <text x="92" y="257" fill="#1f2f3a" font-family="Segoe UI, Arial, sans-serif" font-size="34" font-weight="700">12</text>

  <text x="410" y="220" fill="#4f6673" font-family="Segoe UI, Arial, sans-serif" font-size="14">CRITICAL RISKS</text>
  <text x="410" y="257" fill="#1f2f3a" font-family="Segoe UI, Arial, sans-serif" font-size="34" font-weight="700">3</text>

  <text x="728" y="220" fill="#4f6673" font-family="Segoe UI, Arial, sans-serif" font-size="14">PORTFOLIO EXPECTED LOSS</text>
  <text x="728" y="257" fill="#1f2f3a" font-family="Segoe UI, Arial, sans-serif" font-size="34" font-weight="700">$498,200</text>

  <text x="1046" y="220" fill="#4f6673" font-family="Segoe UI, Arial, sans-serif" font-size="14">MEDIAN RISK SCORE</text>
  <text x="1046" y="257" fill="#1f2f3a" font-family="Segoe UI, Arial, sans-serif" font-size="34" font-weight="700">11</text>

  <g filter="url(#shadow)">
    <rect x="70" y="308" width="425" height="392" rx="18" fill="url(#card)" stroke="#d8c9b8"/>
    <rect x="515" y="308" width="425" height="392" rx="18" fill="url(#card)" stroke="#d8c9b8"/>
    <rect x="960" y="308" width="364" height="392" rx="18" fill="url(#card)" stroke="#d8c9b8"/>
  </g>

  <text x="95" y="346" fill="#1f2f3a" font-family="Georgia, 'Times New Roman', serif" font-size="28" font-weight="700">Add Risk</text>
  <text x="95" y="372" fill="#4f6673" font-family="Segoe UI, Arial, sans-serif" font-size="15">Create entries quickly to keep the matrix current.</text>

  <rect x="95" y="390" width="375" height="40" rx="10" fill="#ffffff" stroke="#d8c9b8"/>
  <rect x="95" y="444" width="180" height="40" rx="10" fill="#ffffff" stroke="#d8c9b8"/>
  <rect x="290" y="444" width="180" height="40" rx="10" fill="#ffffff" stroke="#d8c9b8"/>
  <rect x="95" y="498" width="375" height="40" rx="10" fill="#ffffff" stroke="#d8c9b8"/>
  <rect x="95" y="552" width="375" height="40" rx="10" fill="#ffffff" stroke="#d8c9b8"/>
  <rect x="95" y="610" width="375" height="46" rx="11" fill="url(#primary)"/>

  <text x="111" y="415" fill="#7a8d97" font-family="Segoe UI, Arial, sans-serif" font-size="14">Risk Name</text>
  <text x="111" y="469" fill="#7a8d97" font-family="Segoe UI, Arial, sans-serif" font-size="14">Likelihood (1-5)</text>
  <text x="306" y="469" fill="#7a8d97" font-family="Segoe UI, Arial, sans-serif" font-size="14">Impact (1-5)</text>
  <text x="111" y="523" fill="#7a8d97" font-family="Segoe UI, Arial, sans-serif" font-size="14">Exposure Amount (USD)</text>
  <text x="111" y="577" fill="#7a8d97" font-family="Segoe UI, Arial, sans-serif" font-size="14">Owner</text>
  <text x="225" y="639" fill="#ffffff" font-family="Segoe UI, Arial, sans-serif" font-size="16" font-weight="700">Add Risk</text>

  <text x="540" y="346" fill="#1f2f3a" font-family="Georgia, 'Times New Roman', serif" font-size="28" font-weight="700">5x5 Risk Matrix</text>
  <text x="540" y="372" fill="#4f6673" font-family="Segoe UI, Arial, sans-serif" font-size="15">Bubble color reflects band. Click a point to inspect mitigation.</text>

  <g transform="translate(540 390)">
    <rect width="375" height="280" rx="12" fill="#ecdfd3"/>
    <g stroke="#d8c9b8" stroke-width="1">
      <rect x="1" y="1" width="73" height="54" fill="#e2f4e8"/>
      <rect x="75" y="1" width="73" height="54" fill="#f4f0d9"/>
      <rect x="149" y="1" width="73" height="54" fill="#f9e4c3"/>
      <rect x="223" y="1" width="73" height="54" fill="#f8cfad"/>
      <rect x="297" y="1" width="77" height="54" fill="#f4b9a5"/>

      <rect x="1" y="56" width="73" height="54" fill="#e2f4e8"/>
      <rect x="75" y="56" width="73" height="54" fill="#f4f0d9"/>
      <rect x="149" y="56" width="73" height="54" fill="#f9e4c3"/>
      <rect x="223" y="56" width="73" height="54" fill="#f8cfad"/>
      <rect x="297" y="56" width="77" height="54" fill="#f4b9a5"/>

      <rect x="1" y="111" width="73" height="54" fill="#f4f0d9"/>
      <rect x="75" y="111" width="73" height="54" fill="#f9e4c3"/>
      <rect x="149" y="111" width="73" height="54" fill="#f8cfad"/>
      <rect x="223" y="111" width="73" height="54" fill="#f4b9a5"/>
      <rect x="297" y="111" width="77" height="54" fill="#f4b9a5"/>

      <rect x="1" y="166" width="73" height="54" fill="#f9e4c3"/>
      <rect x="75" y="166" width="73" height="54" fill="#f8cfad"/>
      <rect x="149" y="166" width="73" height="54" fill="#f4b9a5"/>
      <rect x="223" y="166" width="73" height="54" fill="#f4b9a5"/>
      <rect x="297" y="166" width="77" height="54" fill="#f4b9a5"/>

      <rect x="1" y="221" width="73" height="58" fill="#f8cfad"/>
      <rect x="75" y="221" width="73" height="58" fill="#f4b9a5"/>
      <rect x="149" y="221" width="73" height="58" fill="#f4b9a5"/>
      <rect x="223" y="221" width="73" height="58" fill="#f4b9a5"/>
      <rect x="297" y="221" width="77" height="58" fill="#f4b9a5"/>
    </g>

    <circle cx="313" cy="56" r="9" fill="#b42318" stroke="#ffffff" stroke-width="2"/>
    <circle cx="238" cy="168" r="9" fill="#d45d00" stroke="#ffffff" stroke-width="2"/>
    <circle cx="90" cy="170" r="9" fill="#2f9e44" stroke="#ffffff" stroke-width="2"/>
    <circle cx="162" cy="112" r="9" fill="#f0b323" stroke="#ffffff" stroke-width="2"/>
    <circle cx="312" cy="223" r="9" fill="#b42318" stroke="#ffffff" stroke-width="2"/>
  </g>

  <text x="985" y="346" fill="#1f2f3a" font-family="Georgia, 'Times New Roman', serif" font-size="28" font-weight="700">Priority Ranking</text>
  <text x="985" y="372" fill="#4f6673" font-family="Segoe UI, Arial, sans-serif" font-size="15">Ranks by score first, then expected loss.</text>

  <g>
    <rect x="985" y="392" width="314" height="70" rx="10" fill="#fffcf5" stroke="#d8c9b8"/>
    <rect x="985" y="472" width="314" height="70" rx="10" fill="#fffcf5" stroke="#d8c9b8"/>
    <rect x="985" y="552" width="314" height="70" rx="10" fill="#fffcf5" stroke="#d8c9b8"/>

    <text x="1000" y="415" fill="#1f2f3a" font-family="Segoe UI, Arial, sans-serif" font-size="14" font-weight="700">Credential stuffing attack</text>
    <text x="1000" y="495" fill="#1f2f3a" font-family="Segoe UI, Arial, sans-serif" font-size="14" font-weight="700">Critical supplier disruption</text>
    <text x="1000" y="575" fill="#1f2f3a" font-family="Segoe UI, Arial, sans-serif" font-size="14" font-weight="700">Cloud region outage</text>

    <rect x="1000" y="427" width="285" height="8" rx="4" fill="#ecdfd3"/>
    <rect x="1000" y="427" width="250" height="8" rx="4" fill="url(#bar)"/>

    <rect x="1000" y="507" width="285" height="8" rx="4" fill="#ecdfd3"/>
    <rect x="1000" y="507" width="220" height="8" rx="4" fill="url(#bar)"/>

    <rect x="1000" y="587" width="285" height="8" rx="4" fill="#ecdfd3"/>
    <rect x="1000" y="587" width="190" height="8" rx="4" fill="url(#bar)"/>

    <text x="1000" y="451" fill="#4f6673" font-family="Segoe UI, Arial, sans-serif" font-size="12">Score 20 (critical)</text>
    <text x="1232" y="451" fill="#4f6673" font-family="Segoe UI, Arial, sans-serif" font-size="12">$159,600</text>

    <text x="1000" y="531" fill="#4f6673" font-family="Segoe UI, Arial, sans-serif" font-size="12">Score 16 (critical)</text>
    <text x="1232" y="531" fill="#4f6673" font-family="Segoe UI, Arial, sans-serif" font-size="12">$98,800</text>

    <text x="1000" y="611" fill="#4f6673" font-family="Segoe UI, Arial, sans-serif" font-size="12">Score 15 (high)</text>
    <text x="1232" y="611" fill="#4f6673" font-family="Segoe UI, Arial, sans-serif" font-size="12">$57,600</text>
  </g>
</svg>
